<svg xmlns="http://www.w3.org/2000/svg" width="30.628" height="30.628" viewBox="0 0 30.628 30.628">
  <path id="微信支付" d="M77.745,51.2H55.284A4.084,4.084,0,0,0,51.2,55.284V77.745a4.084,4.084,0,0,0,4.084,4.084H77.745a4.084,4.084,0,0,0,4.084-4.084V55.284A4.084,4.084,0,0,0,77.745,51.2ZM66.514,74.522a12.074,12.074,0,0,1-3.332-.467,1.029,1.029,0,0,0-.3-.045,1.068,1.068,0,0,0-.542.157L60.1,75.458a.383.383,0,0,1-.2.063.34.34,0,0,1-.34-.34,1,1,0,0,1,.055-.249l.46-1.716A.811.811,0,0,0,60.118,73a.681.681,0,0,0-.286-.555A8.008,8.008,0,0,1,56.3,66.014c0-4.7,4.571-8.508,10.209-8.508a10.916,10.916,0,0,1,8.339,3.6L64.539,65.7a1.013,1.013,0,0,1-.907-.1l-2.193-1.561a.34.34,0,0,0-.544.273.355.355,0,0,0,.032.143l1.859,4.078.045.1a.68.68,0,0,0,.9.275l.075-.043,11.755-6.787a7.364,7.364,0,0,1,1.163,3.942c0,4.7-4.571,8.508-10.209,8.508Z" transform="translate(-51.2 -51.2)" fill="#24b340"/>
</svg>
