<svg xmlns="http://www.w3.org/2000/svg" width="29.777" height="17.597" viewBox="0 0 29.777 17.597">
  <path id="支付-苹果支付" d="M64.3,248.444v16.108a.752.752,0,0,0,.744.744H93.333a.752.752,0,0,0,.744-.744V248.444a.752.752,0,0,0-.744-.744H65.041A.749.749,0,0,0,64.3,248.444Zm28.355,16.175H65.719a.752.752,0,0,1-.744-.744V249.122a.752.752,0,0,1,.744-.744H92.655a.752.752,0,0,1,.744.744v14.753A.752.752,0,0,1,92.655,264.619ZM71.811,252.981a1.984,1.984,0,0,0,.475-1.489,2.338,2.338,0,0,0-1.422.678,1.56,1.56,0,0,0-.475,1.422,1.661,1.661,0,0,0,1.422-.612m1.353,3.383a1.928,1.928,0,0,0,1.286,1.828,4.395,4.395,0,0,1-.678,1.286c-.405.542-.811,1.083-1.489,1.15-.608,0-.811-.339-1.555-.339s-.947.339-1.555.405c-.608,0-1.083-.608-1.489-1.15-.811-1.15-1.422-3.18-.608-4.6a2.33,2.33,0,0,1,1.964-1.15c.608,0,1.22.405,1.555.405.405,0,1.083-.475,1.828-.405a2.363,2.363,0,0,1,1.758.881,2.029,2.029,0,0,0-1.017,1.692m2.436-3.25h2.978c1.692,0,2.5.678,2.5,2.1s-.811,2.167-2.5,2.167h-2.1v2.978h-.811v-7.242Zm.814.744V256.7h2.1a2.248,2.248,0,0,0,1.286-.339,1.336,1.336,0,0,0,.405-1.083,1.436,1.436,0,0,0-.405-1.083,2.093,2.093,0,0,0-1.286-.339s-2.1,0-2.1,0Zm9.541,1.695a1.9,1.9,0,0,1,.475,1.422v3.383h-.744v-.881a2.024,2.024,0,0,1-.811.678,2.8,2.8,0,0,1-1.286.339,1.961,1.961,0,0,1-1.286-.405,1.346,1.346,0,0,1-.475-1.083,1.621,1.621,0,0,1,.811-1.489,3.23,3.23,0,0,1,1.758-.405h1.286v-.2c0-.881-.475-1.286-1.353-1.286a1.626,1.626,0,0,0-1.014.269,1.276,1.276,0,0,0-.475.811H82.03a1.94,1.94,0,0,1,.744-1.353,2.664,2.664,0,0,1,1.555-.405A2.17,2.17,0,0,1,85.955,255.553Zm-.339,2.233H84.4c-1.15,0-1.758.405-1.758,1.22a.657.657,0,0,0,.269.608,1.437,1.437,0,0,0,.811.2,1.945,1.945,0,0,0,1.353-.475,1.55,1.55,0,0,0,.542-1.15l0-.405Zm1.489-2.642h.881l1.622,4.131,1.555-4.128h.881L89.2,262.389h-.881l.881-2.1Z" transform="translate(-64.3 -247.7)" fill="#333"/>
</svg>
